<svg class="ldp-stripe" width="200px"  height="200px"  xmlns="http://www.w3.org/2000/svg" xmlns:xlink="http://www.w3.org/1999/xlink" preserveAspectRatio="xMidYMid" style="background: rgba(0, 0, 0, 0) none repeat scroll 0% 0%;"><defs>
  <pattern id="ldp-a8d8b6060294b" x="0" y="0" width="200" height="200" patternUnits="userSpaceOnUse">
    <path d="M 200 0 L 0 200 L 50 200 L 250 0 Z" transform="translate(-400 0)" fill="#eca611">
  <animateTransform attributeName="transform" type="translate" values="-400 0;-200 0" keyTimes="0;1" dur="10s" repeatCount="indefinite"></animateTransform>
</path> <path d="M 200 0 L 0 200 L 50 200 L 250 0 Z" transform="translate(-300 0)" fill="#fdc823">
  <animateTransform attributeName="transform" type="translate" values="-300 0;-100 0" keyTimes="0;1" dur="10s" repeatCount="indefinite"></animateTransform>
</path> <path d="M 200 0 L 0 200 L 50 200 L 250 0 Z" transform="translate(-200 0)" fill="#eca611">
  <animateTransform attributeName="transform" type="translate" values="-200 0;0 0" keyTimes="0;1" dur="10s" repeatCount="indefinite"></animateTransform>
</path> <path d="M 200 0 L 0 200 L 50 200 L 250 0 Z" transform="translate(-100 0)" fill="#fdc823">
  <animateTransform attributeName="transform" type="translate" values="-100 0;100 0" keyTimes="0;1" dur="10s" repeatCount="indefinite"></animateTransform>
</path> <path d="M 200 0 L 0 200 L 50 200 L 250 0 Z" transform="translate(0 0)" fill="#eca611">
  <animateTransform attributeName="transform" type="translate" values="0 0;200 0" keyTimes="0;1" dur="10s" repeatCount="indefinite"></animateTransform>
</path> <path d="M 200 0 L 0 200 L 50 200 L 250 0 Z" transform="translate(100 0)" fill="#fdc823">
  <animateTransform attributeName="transform" type="translate" values="100 0;300 0" keyTimes="0;1" dur="10s" repeatCount="indefinite"></animateTransform>
</path>
  </pattern>
</defs>
<rect x="0" y="0" width="100%" height="100%" fill="url(#ldp-a8d8b6060294b)"></rect></svg>